<?xml version="1.0" encoding="UTF-8"?>
<!DOCTYPE svg  PUBLIC '-//W3C//DTD SVG 1.1//EN'  'http://www.w3.org/Graphics/SVG/1.1/DTD/svg11.dtd'>
<svg width="1152pt" height="163pt" version="1.1" viewBox="0 0 1152 163" xmlns="http://www.w3.org/2000/svg">
<g fill="#fff">
<path d="m59.62 66.8c3.06-3.33 6.8-5.93 10.97-7.7l0.06 0.27c-0.42 0.42-1.25 1.26-1.66 1.68 2.93-0.25 5.82 0.31 8.62 1.15 0.38 2.74 0.57 5.51 0.99 8.25 0.67-2.76 1.01-5.57 1.34-8.38 2.69-0.69 5.42-1.21 8.21-1.05-0.24-0.47-0.72-1.42-0.96-1.9 4.08 2.08 8.1 4.54 10.9 8.27l-2.06-0.6c0.93 2.6 1.5 5.31 1.79 8.06-2.5 1.19-5.05 2.31-7.34 3.89 2.6-0.39 5.17-0.95 7.75-1.49 1.76 2.22 2.9 4.83 3.6 7.57 0.61-0.52 1.23-1.03 1.85-1.52-0.83 4.42-2.14 8.74-4.3 12.7-0.12-0.49-0.36-1.48-0.48-1.98-2.17 1.86-4.67 3.28-7.39 4.16-1.82-2.14-3.65-4.28-5.75-6.16 0.99 2.72 2.95 5.02 3.73 7.81-1.48 2.54-4.78 3.64-5.61 6.58-3.25 0.74-6.61 0.76-9.88 0.13-1.44-2.83-4.41-4.37-6.3-6.85 1.44-2.59 2.89-5.18 4.14-7.87 4.6 0.02 9.2 0 13.8 0.02 1.4-4.37 2.88-8.7 4.25-13.07-3.71-2.72-7.44-5.41-11.15-8.13-3.69 2.68-7.39 5.34-11.03 8.08-2.65-1.3-5.34-2.51-8.02-3.75 0.12-2.67 0.69-5.28 1.64-7.77l-1.71-0.4z"/>
<path d="m55.57 85.08c0.64-2.81 1.86-5.43 3.48-7.81 2.84 0.51 5.66 1.1 8.52 1.51 1.43 4.29 2.73 8.62 4.22 12.89-2.03 2.16-4.04 4.33-6 6.54-2.75-1.04-5.29-2.53-7.6-4.35l0.12 2.15c-2.6-3.84-3.86-8.35-4.21-12.93 0.37 0.5 1.1 1.5 1.47 2z"/>
</g>
<path d="m57.72 4.62c4.9-1.92 9.98-3.77 15.33-3.69 1.92 11.2 4.51 22.29 5.96 33.55-11.38 1.73-21.1 9.14-27.05 18.82-2.31-0.53-4.26-1.96-6.29-3.11-7.84-4.72-15.92-9.04-23.64-13.96 7.72-14.26 20.68-25.54 35.69-31.61z" fill="#8e2f89"/>
<path d="m79.95 9.39c21.12-3.45 43.92 2.83 59.6 17.57-7.47 8.72-14.9 17.48-22.59 26-8.73-7.64-20.64-11.26-32.13-9.29-1.72-11.41-3.74-22.8-4.88-34.28z" fill="#e61e29"/>
<g fill="#e20b1a">
<path d="m589.85 34.11c-4.44-7.85-4.21-18.22 0.97-25.68 1.01 2.77 2.04 5.55 3.52 8.11 5.77 9.96 11.5 19.94 17.28 29.9 2.1 3.46 3.03 7.46 3.52 11.45 11.21 3.19 23.09 8.25 29.51 18.53 4.49 7.05 2.88 16.6-2.67 22.59-8.7 9.66-21.68 14.06-34.14 16.38-17.52 2.85-36 1.8-52.56-4.92-7.64-3.2-15.06-7.92-19.52-15.08-3.92-6.27-3.46-14.78 1.04-20.63 6.76-9.22 17.86-13.97 28.59-16.88 0.29 4.55 1.02 9.17 3.36 13.16 5.85 10.19 11.75 20.36 17.62 30.54 1.4 2.39 2.35 5 3.22 7.62 4.76-7.55 5.01-17.68 0.42-25.36-4.49-7.75-8.96-15.53-13.47-23.28-5.5-8.28-5.19-19.34-0.15-27.76 3.22 9.32 9.17 17.33 13.8 25.96 4.56 8.49 10.33 16.39 13.69 25.47 4.78-7.24 4.92-17.16 0.64-24.65-4.84-8.52-9.85-16.94-14.67-25.47z"/>
<path d="m684.02 38.55c8.85-2.24 18.25-1.5 27.06 0.62 1.17 0.57 3.1 0.28 3.68 1.69-0.17 3.56-1.09 7.01-2.01 10.43-8.53-2.46-18.19-4.92-26.73-1.32-5.9 2.57-5.81 11.38-0.8 14.83 8.01 5.88 18.51 7.36 26.1 13.99 7.75 6.08 9.04 18.2 3.78 26.29-3.63 5.37-9.97 8.19-16.2 9.22-10.22 1.56-20.88 0.53-30.51-3.28 0.38-3.76 0.94-7.51 1.97-11.15 9 3.37 19.05 5.65 28.54 2.97 3.92-1.01 7.18-4.61 6.73-8.83-0.06-4.69-4.06-7.89-7.91-9.81-7.92-4.37-17.47-6.32-23.76-13.25-5.05-5.5-5.87-13.85-3.67-20.76 1.99-6.09 7.67-10.2 13.73-11.64z"/>
<path d="m847.49 39.74c3.92-1.15 7.98-1.57 12.06-1.71-0.09 6.74-0.04 13.48-0.04 20.21 6.17-0.01 12.35 0.03 18.53-0.02-0.1 3.47-0.51 6.92-1.1 10.33-5.81-0.08-11.63-0.04-17.43-0.04 0 8.85-0.03 17.7-0.01 26.55-0.08 3.16 1.04 6.88 4.2 8.2 4.53 2.01 9.56 0.51 14.13-0.57-0.46 3.37-0.92 6.75-1.35 10.13-6.72 2.22-14.45 2.61-20.96-0.46-5.39-2.55-7.96-8.7-8.01-14.4-0.05-19.41 0.01-38.82-0.02-58.22z"/>
<path d="m1039.9 40.05c3.26-2.18 7.82-1.6 11.67-2.04-0.08 25.03-0.07 50.05-0.01 75.08-3.65 0.17-7.3 0.23-10.95 0.16-0.26-2.09-0.48-4.18-0.69-6.28-5.55 8.87-18.19 9.34-26.68 4.8-7.8-4.19-11.44-13.23-12.02-21.68-0.83-9.81 1.07-21.12 9.24-27.57 8.2-6.45 19.42-6.73 29.33-5.36 0.07-5.7-0.24-11.42 0.11-17.11m-19.48 29.41c-6.02 3.93-7.42 11.86-7.08 18.54 0.31 5.74 2.19 12.42 7.81 15.12 6.03 2.99 13.24 1.29 18.6-2.35 0.05-10.98-0.01-21.95 0.03-32.92-6.38-1.15-13.64-2.2-19.36 1.61z"/>
<path d="m733.53 63.57c6.23-5.87 15.23-7.3 23.48-7.09 6.34 0.09 12.68 0.98 18.71 2.96 0.09 17.93 0 35.85 0.05 53.78-3.7 0.03-7.39 0.05-11.09 0.03-0.32-1.92-0.57-3.84-0.76-5.77-6.35 8.94-19.9 8.89-28.33 3.1-7.2-5.04-9.99-14.15-10.27-22.57-0.29-8.69 1.46-18.35 8.21-24.44m10.49 6.51c-5.68 4.3-6.88 12.14-6.36 18.81 0.4 5.32 2.28 11.33 7.31 14 5.97 3.22 13.39 1.72 18.77-2 0-11.17 0.04-22.34-0.02-33.51-6.58-0.8-14.05-1.49-19.7 2.7z"/>
<path d="m788.27 59.45c12.01-2.61 25-4.92 36.89-0.56 6.71 2.27 10.67 9.25 10.67 16.12 0.39 12.74 0.06 25.5 0.17 38.24-4.08 0-8.16 0.01-12.24-0.01-0.03-11.78 0-23.57 0-35.34 0.12-3.73-1.34-8.01-5.02-9.54-5.85-2.43-12.37-1.52-18.46-0.77-0.08 15.21 0.01 30.43-0.04 45.64-4.01 0.04-8.01 0.02-12.01 0 0.04-17.93-0.03-35.85 0.04-53.78z"/>
<path d="m882.79 74.79c2.17-8.66 9.64-15.37 18.3-17.2 10.11-2.11 20.79-1.21 30.63 1.84 0.11 17.93-0.02 35.85 0.06 53.78-3.7 0.03-7.39 0.07-11.08 0.05-0.38-1.89-0.61-3.8-0.78-5.71-8.19 10.98-26.87 8.47-33.8-2.65-5.49-8.89-5.88-20.19-3.33-30.11m19.21-5.94c-4.6 2.25-7.23 7.18-7.99 12.08-1.01 6.1-0.54 12.85 2.82 18.2 5.13 7.42 16.25 6.66 22.91 1.76 0-11.17 0.04-22.35-0.02-33.52-5.89-0.65-12.28-1.39-17.72 1.48z"/>
<path d="m944.26 59.46c10.65-2.39 21.82-4.25 32.65-1.9 4.81 1.09 9.72 3.45 12.3 7.86 3.16 5.29 2.74 11.68 2.8 17.6-0.02 10.08-0.01 20.15-0.01 30.23h-12c-0.04-11.09 0.08-22.18-0.05-33.28-0.09-4.06-0.47-9.18-4.57-11.28-5.93-2.89-12.78-1.84-19.07-1.12-0.14 15.22-0.01 30.44-0.07 45.66-4.01 0.04-8.01 0.03-12.01 0 0.04-17.93-0.02-35.85 0.03-53.77z"/>
<path d="m1065.2 67.33c3.61-6.35 10.73-9.98 17.84-10.62 8.34-1.04 17.92 0.85 23.32 7.83 5.67 7.23 5.54 17.02 4.44 25.69-12.61 0.1-25.21-0.1-37.81 0.11 1.17 5.14 3.83 10.6 9.16 12.45 9 3.17 18.86 0.7 27.46-2.6-0.55 3.67-1.17 7.34-1.85 10.99-9.52 3.92-20.48 4.53-30.31 1.43-7.86-2.51-13.78-9.53-15.42-17.55-1.97-9.19-1.64-19.43 3.17-27.73m14.09 1.02c-4.25 2.4-5.62 7.42-6.45 11.88 8.85 0.03 17.7 0.01 26.55 0-0.43-3.06-0.71-6.33-2.63-8.88-3.85-5.39-11.97-6-17.47-3z"/>
<path d="m1121.3 59.36c9.97-2.78 20.42-3.43 30.71-2.5v2.79c-0.23 2.53-0.63 5.03-1 7.54-5.9-0.56-11.84-0.53-17.73 0.18-0.06 15.29 0.01 30.58-0.03 45.88-4.01 0.01-8.01 0-12.01-0.03 0.05-17.95-0.06-35.9 0.06-53.86z"/>
</g>
<g fill="#030406">
<path d="m358.5 30.67c6-2.44 13.59 1.73 14.4 8.23 1.3 6.42-4.3 13.04-10.87 12.65-6.05 0.31-11.06-5.59-10.48-11.45 0.26-4.14 3.02-8.04 6.95-9.43z"/>
<path d="m186.75 41c6.34 0.01 12.68-0.02 19.02 0.01-0.04 18.67 0 37.33-0.02 55.99h22.75c0.01 5.57-0.02 11.14 0.03 16.71-13.93 0.11-27.85 0.01-41.78 0.05-0.01-24.25 0-48.51 0-72.76z"/>
<path d="m303.75 41h19.25v56c7.59 0.01 15.19-0.03 22.78 0.03-0.05 5.57-0.02 11.15-0.03 16.72-14 0.01-28 0-42 0.01-0.01-24.25 0-48.51 0-72.76z"/>
<path d="m380.58 70.92c3.27-8.9 11.63-16.11 21.32-16.53 7.04-0.74 13.97 2.08 18.91 7.04-0.05-1.97-0.07-3.94-0.09-5.91 5.74-0.05 11.49 0 17.24-0.05 0.08 16.85 0.05 33.7 0.02 50.55 0.09 8.09-2.74 16.62-9.3 21.72-9.8 7.62-23.84 8.31-35.11 3.73-7.47-2.92-13.03-9.76-14.3-17.69 6.61-0.06 13.23-0.02 19.84-0.03 3.84 6.34 13.17 5.95 18.45 1.76 2.92-2.47 2.46-6.57 2.63-10-5.22 3.89-11.51 6.97-18.19 6.44-7.14-0.37-14.01-4.11-18.11-9.97-6.37-8.87-7.11-21-3.31-31.06m23.53-0.77c-10.49 3.33-11.48 20.3-2.01 25.45 5.45 2.92 12.86 0.94 16.32-4.14 4.04-5.59 3.26-14.24-1.94-18.85-3.32-2.94-8.18-3.45-12.37-2.46z"/>
<path d="m73.53 55.77c9.62-1.97 20.13 1.82 26.24 9.51 7.1 8.51 8.08 21.44 2.34 30.93-5.68 9.86-18 15.34-29.11 12.72-12.3-2.4-21.94-14.37-21.34-26.95-0.2-12.5 9.62-24.06 21.87-26.21m-13.91 11.03l1.71 0.4c-0.95 2.49-1.52 5.1-1.64 7.77 2.68 1.24 5.37 2.45 8.02 3.75 3.64-2.74 7.34-5.4 11.03-8.08 3.71 2.72 7.44 5.41 11.15 8.13-1.37 4.37-2.85 8.7-4.25 13.07-4.6-0.02-9.2 0-13.8-0.02-1.25 2.69-2.7 5.28-4.14 7.87 1.89 2.48 4.86 4.02 6.3 6.85 3.27 0.63 6.63 0.61 9.88-0.13 0.83-2.94 4.13-4.04 5.61-6.58-0.78-2.79-2.74-5.09-3.73-7.81 2.1 1.88 3.93 4.02 5.75 6.16 2.72-0.88 5.22-2.3 7.39-4.16 0.12 0.5 0.36 1.49 0.48 1.98 2.16-3.96 3.47-8.28 4.3-12.7-0.62 0.49-1.24 1-1.85 1.52-0.7-2.74-1.84-5.35-3.6-7.57-2.58 0.54-5.15 1.1-7.75 1.49 2.29-1.58 4.84-2.7 7.34-3.89-0.29-2.75-0.86-5.46-1.79-8.06l2.06 0.6c-2.8-3.73-6.82-6.19-10.9-8.27 0.24 0.48 0.72 1.43 0.96 1.9-2.79-0.16-5.52 0.36-8.21 1.05-0.33 2.81-0.67 5.62-1.34 8.38-0.42-2.74-0.61-5.51-0.99-8.25-2.8-0.84-5.69-1.4-8.62-1.15 0.41-0.42 1.24-1.26 1.66-1.68l-0.06-0.27c-4.17 1.77-7.91 4.37-10.97 7.7m-4.05 18.28c-0.37-0.5-1.1-1.5-1.47-2 0.35 4.58 1.61 9.09 4.21 12.93l-0.12-2.15c2.31 1.82 4.85 3.31 7.6 4.35 1.96-2.21 3.97-4.38 6-6.54-1.49-4.27-2.79-8.6-4.22-12.89-2.86-0.41-5.68-1-8.52-1.51-1.62 2.38-2.84 5-3.48 7.81z"/>
<path d="m241.5 61.41c6.48-5.99 16.06-8.61 24.62-6.24 3.82 1.04 7.04 3.45 10.05 5.93 0.06-1.88 0.1-3.75 0.14-5.63 5.82 0.06 11.64 0.01 17.46 0.04-0.03 19.42-0.01 38.83-0.01 58.24-5.92 0.01-11.83-0.02-17.74 0.02-0.01-1.75-0.02-3.51-0.02-5.27-10.6 10.1-29.67 8.78-38.45-3.04-9.35-12.99-8.1-33.12 3.95-44.05m16.93 10.23c-9.49 2.99-11.64 16.23-5.37 23.25 4.7 5.79 14.19 5.5 19.34 0.48 5.96-5.44 5.69-15.96-0.4-21.21-3.65-3.22-9.01-3.98-13.57-2.52z"/>
<path d="m455.96 60.79c6.56-5.8 16.15-7.95 24.54-5.45 3.61 1.12 6.63 3.48 9.49 5.87 0-1.92 0.02-3.83 0.05-5.74 5.82 0.05 11.64 0.02 17.46 0.02 0.01 19.42-0.01 38.84 0.01 58.26-5.99 0.02-11.98-0.02-17.97 0.03-0.03-1.66-0.05-3.32-0.07-4.98-10.89 9.86-30.06 8.34-38.58-3.85-9.13-13.24-7.49-33.59 5.07-44.16m16.46 10.77c-10.04 2.84-12.09 17.15-5.01 24.01 5.11 5.4 14.51 4.49 19.31-0.87 5.94-6.03 4.6-17.44-2.71-21.79-3.4-2.19-7.77-2.45-11.59-1.35z"/>
<path d="m353.23 55.52c5.92-0.04 11.85-0.02 17.77-0.02-0.01 19.42 0.01 38.84-0.01 58.26-5.92-0.02-11.83 0-17.74 0-0.02-19.42 0.02-38.83-0.02-58.24z"/>
</g>
<path d="m6.79 98.29c-8.34-19.8-6.97-43.59 3.87-62.17 9.06 4.66 17.95 9.63 26.96 14.36 1.35 0.83 4.16 1.7 2.61 3.73-5.14 9.73-5.24 21.44-1.28 31.6-10.64 4.37-21.42 8.39-32.16 12.48z" fill="#1a5ca8"/>
<path d="m128.53 46.62c2.84-2.8 5.24-6.09 8.47-8.46 16.34 13.8 24.71 36.15 23.23 57.34-11.45-0.22-22.89-0.93-34.33-1.55 0.46-11.59-4.06-23.15-12.66-30.99 4.91-5.61 10.22-10.87 15.29-16.34z" fill="#f38a21"/>
<path d="m0 106.56c10.47-4.28 20.76-8.99 31.18-13.38 2.84 5.43 6.09 10.81 10.9 14.72 4.03 3.62 9.07 5.75 14.09 7.58-2.67 9.95-6.07 19.69-8.98 29.58-0.42 1.31-1.03 3.88-2.99 2.92-19.63-5.92-35.9-21.07-44.2-39.72v-1.7z" fill="#229ad7"/>
<path d="m115.11 100.88c0.41-1.01-0.05-3.57 1.71-3.2 11.07 0.66 22.12 1.7 33.18 2.51-0.85 21.54-12.5 42.13-30.07 54.5-7.15-9.03-13.72-18.5-20.57-27.76 8.27-6.3 14.71-15.51 15.75-26.05z" fill="#fddd18"/>
<path d="m57.1 126c11.16 3.15 23.46 1.23 32.95-5.48 6.71 9.36 12.94 19.04 19.35 28.61-9.64 7.31-21.46 11.07-33.31 12.83-6.96 2.19-14.09-0.1-21.05-0.98-2.28-0.59-5.04-0.54-6.83-2.18 2.51-11.03 5.88-21.88 8.89-32.8z" fill="#23a751"/>
</svg>
